<svg width="38" height="38" viewBox="0 -1 38 38" fill="none" xmlns="http://www.w3.org/2000/svg">
  <path d="M15.7314 0.0012207L10.0756 3.21672C9.72998 3.41135 9.51855 3.77629 9.51855 4.16961V12.4983C9.51855 13.6539 8.91272 14.7244 7.92061 15.3205L0.532648 19.7646C0.203301 19.9633 0 20.3201 0 20.7053V27.1444L15.7314 18.2035V0.0012207Z" fill="#283349"/>
  <path d="M37.3828 19.7646L29.9949 15.3165C29.0027 14.7204 28.3969 13.6499 28.3969 12.4942V4.16961C28.3969 3.77629 28.1855 3.41135 27.8399 3.21672L22.1841 0.0012207V18.1994L37.9155 27.1404V20.7053C37.9155 20.3201 37.7122 19.9633 37.3828 19.7646Z" fill="#283349"/>
  <path d="M3.30505 32.5561L9.05034 35.8527C9.38782 36.0473 9.80662 36.0473 10.1441 35.8527L17.3166 31.7654C18.3331 31.1856 19.5773 31.1856 20.5938 31.7654L27.7703 35.8527C28.1077 36.0473 28.5266 36.0473 28.8641 35.8527L34.6093 32.5561L18.9551 23.457L3.30505 32.5561Z" fill="#283349"/>
</svg>
