<svg width="153" height="36" viewBox="0 0 153 36" fill="none" xmlns="http://www.w3.org/2000/svg">
  <path d="M15.7314 0.0012207L10.0756 3.21672C9.72998 3.41135 9.51855 3.77629 9.51855 4.16961V12.4983C9.51855 13.6539 8.91272 14.7244 7.92061 15.3205L0.532648 19.7646C0.203301 19.9633 0 20.3201 0 20.7053V27.1444L15.7314 18.2035V0.0012207Z" fill="#283349"/>
  <path d="M37.3828 19.7646L29.9949 15.3165C29.0027 14.7204 28.3969 13.6499 28.3969 12.4942V4.16961C28.3969 3.77629 28.1855 3.41135 27.8399 3.21672L22.1841 0.0012207V18.1994L37.9155 27.1404V20.7053C37.9155 20.3201 37.7122 19.9633 37.3828 19.7646Z" fill="#283349"/>
  <path d="M3.30505 32.5561L9.05034 35.8527C9.38782 36.0473 9.80662 36.0473 10.1441 35.8527L17.3166 31.7654C18.3331 31.1856 19.5773 31.1856 20.5938 31.7654L27.7703 35.8527C28.1077 36.0473 28.5266 36.0473 28.8641 35.8527L34.6093 32.5561L18.9551 23.457L3.30505 32.5561Z" fill="#283349"/>
  <path d="M62.0431 18.6709H64.2348C64.2225 19.2264 64.0437 19.7413 63.6615 20.1103C63.2792 20.4916 62.71 20.7227 61.8927 20.7227C60.925 20.7227 60.2582 20.3983 59.8232 19.8144C59.3881 19.2589 59.1848 18.4439 59.1848 17.5072V17.3977C59.1848 15.4027 60.1647 14.1538 61.8683 14.1538C63.0515 14.1538 63.7753 14.6687 63.9786 15.8082H66.1702C66.0604 14.612 65.5033 13.7564 64.7267 13.201C63.9501 12.6575 62.9296 12.4143 61.8398 12.4143C60.4127 12.4143 59.1604 12.9292 58.2862 13.7969C57.3998 14.6647 56.8834 15.9014 56.8834 17.3653V17.4747C56.8834 18.9263 57.3184 20.151 58.1764 21.0186C59.0058 21.9026 60.246 22.4176 61.8358 22.4176C63.2915 22.4176 64.434 21.9837 65.2107 21.2214C65.9873 20.4753 66.4101 19.4008 66.4101 18.0991V17.0693H62.0391V18.6709H62.0431Z" fill="#283349"/>
  <path d="M81.7967 18.1475H85.1145V16.5459H81.7967V14.2792H85.9481V12.5681H79.601V22.2713H86.1636V20.5642H81.7967V18.1475Z" fill="#283349"/>
  <path d="M104.486 18.6098L102.213 12.5681H99.3013V22.2713H101.273V15.4591L103.981 22.2713H104.705L107.4 15.4591V22.2713H109.593V12.5681H106.734L104.486 18.6098Z" fill="#283349"/>
  <path d="M128.768 17.2231C129.857 16.9109 130.345 16.1769 130.345 15.147V15.0942C130.345 13.4237 129.255 12.5681 127.12 12.5681H123.295V22.2753H127.295C129.568 22.2753 130.71 21.3509 130.71 19.5586V19.5059C130.714 18.2003 130.036 17.4826 128.768 17.2231ZM125.449 14.0724H126.754C127.788 14.0724 128.251 14.4374 128.251 15.2524V15.3051C128.251 16.1729 127.844 16.554 126.767 16.554H125.445V14.0724H125.449ZM128.539 19.3802C128.539 20.2641 128.048 20.7508 126.962 20.7508H125.449V17.9691H126.852C128.052 17.9691 128.539 18.4151 128.539 19.3276V19.3802Z" fill="#283349"/>
  <path d="M146.164 12.5681L142.965 22.2753H145.034L145.701 20.1182H149.226L149.893 22.2753H152.194L149.035 12.5681H146.164ZM146.176 18.553L147.47 14.3604L148.75 18.553H146.176Z" fill="#283349"/>
</svg> 